<?xml version="1.0" encoding="UTF-8"?>
<svg width="25px" height="25px" viewBox="0 0 25 25" version="1.1" xmlns="http://www.w3.org/2000/svg" xmlns:xlink="http://www.w3.org/1999/xlink">
    <!-- Generator: Sketch 51.3 (57544) - http://www.bohemiancoding.com/sketch -->
    <title>fb</title>
    <desc>Created with Sketch.</desc>
    <defs>
        <polygon id="path-1" points="0.000138888889 0.321232877 25.0001389 0.321232877 25.0001389 25 0.000138888889 25"></polygon>
    </defs>
    <g id="Symbols" stroke="none" stroke-width="1" fill="none" fill-rule="evenodd">
        <g id="footer-small" transform="translate(-1094.000000, -65.000000)">
            <g id="Group-7">
                <g id="fb" transform="translate(1094.000000, 65.000000)">
                    <mask id="mask-2" fill="white">
                        <use xlink:href="#path-1"></use>
                    </mask>
                    <g id="Clip-12"></g>
                    <path d="M10.5115972,20.6369521 L10.5115972,12.697226 L8.83277778,12.697226 L8.83277778,9.9944863 L10.5115972,9.9944863 L10.5115972,7.86606164 C10.5115972,5.8684589 11.5945833,4.82530822 13.9966667,4.82530822 L16.2320833,4.82530822 L16.2320833,7.5955137 L14.4848611,7.5955137 C13.8681944,7.5955137 13.7397222,7.8444863 13.7397222,8.47393836 L13.7397222,9.9944863 L16.2320833,9.9944863 L15.9918056,12.6636644 L13.7397222,12.6636644 L13.7397222,20.6369521 L10.5115972,20.6369521 Z M4.00013889,25.0003082 L21.0001389,25.0003082 C23.2092779,25.0003082 25.0001389,23.2094472 25.0001389,21.0003082 L25.0001389,4.32119863 C25.0001389,2.11205963 23.2092779,0.32119863 21.0001389,0.32119863 L4.00013889,0.32119863 C1.79099989,0.32119863 0.000138888889,2.11205963 0.000138888889,4.32119863 L0.000138888889,21.0003082 C0.000138888889,23.2094472 1.79099989,25.0003082 4.00013889,25.0003082 Z" id="Fill-11" fill="#3E4352" mask="url(#mask-2)"></path>
                </g>
            </g>
        </g>
    </g>
</svg>