<?xml version="1.0" encoding="UTF-8" standalone="no"?>
<svg width="24px" height="24px" viewBox="0 0 24 24" version="1.1" xmlns="http://www.w3.org/2000/svg" xmlns:xlink="http://www.w3.org/1999/xlink">
    <!-- Generator: Sketch 50.2 (55047) - http://www.bohemiancoding.com/sketch -->
    <title>notifications</title>
    <desc>Created with Sketch.</desc>
    <defs>
        <path d="M13,11 L17,11 C17.5522847,11 18,11.4477153 18,12 C18,12.5522847 17.5522847,13 17,13 L13,13 L13,17 C13,17.5522847 12.5522847,18 12,18 C11.4477153,18 11,17.5522847 11,17 L11,13 L7,13 C6.44771525,13 6,12.5522847 6,12 C6,11.4477153 6.44771525,11 7,11 L11,11 L11,7 C11,6.44771525 11.4477153,6 12,6 C12.5522847,6 13,6.44771525 13,7 L13,11 Z M10.0368153,0 L13.9631847,7.4831381e-16 C17.2667891,1.41451529e-16 18.6036791,0.371302445 19.9073828,1.06853082 C21.2110865,1.76575919 22.2342408,2.78891348 22.9314692,4.09261719 C23.6286976,5.39632089 24,6.73321094 24,10.0368153 L24,13.9631847 C24,17.2667891 23.6286976,18.6036791 22.9314692,19.9073828 C22.2342408,21.2110865 21.2110865,22.2342408 19.9073828,22.9314692 C18.6036791,23.6286976 17.2667891,24 13.9631847,24 L10.0368153,24 C6.73321094,24 5.39632089,23.6286976 4.09261719,22.9314692 C2.78891348,22.2342408 1.76575919,21.2110865 1.06853082,19.9073828 C0.371302445,18.6036791 4.04574854e-16,17.2667891 0,13.9631847 L4.98875873e-16,10.0368153 C9.43010194e-17,6.73321094 0.371302445,5.39632089 1.06853082,4.09261719 C1.76575919,2.78891348 2.78891348,1.76575919 4.09261719,1.06853082 C5.39632089,0.371302445 6.73321094,6.06862281e-16 10.0368153,0 Z M10.0368153,2 C7.3067427,2 6.17236701,2.22432249 5.0358149,2.83215721 C4.08064815,3.34298598 3.34298598,4.08064815 2.83215721,5.0358149 C2.22432249,6.17236701 2,7.3067427 2,10.0368153 L2,13.9631847 C2,16.6932573 2.22432249,17.827633 2.83215721,18.9641851 C3.34298598,19.9193519 4.08064815,20.657014 5.0358149,21.1678428 C6.17236701,21.7756775 7.3067427,22 10.0368153,22 L13.9631847,22 C16.6932573,22 17.827633,21.7756775 18.9641851,21.1678428 C19.9193519,20.657014 20.657014,19.9193519 21.1678428,18.9641851 C21.7756775,17.827633 22,16.6932573 22,13.9631847 L22,10.0368153 C22,7.3067427 21.7756775,6.17236701 21.1678428,5.0358149 C20.657014,4.08064815 19.9193519,3.34298598 18.9641851,2.83215721 C17.827633,2.22432249 16.6932573,2 13.9631847,2 L10.0368153,2 Z" id="path-1"></path>
    </defs>
    <g id="Symbols" stroke="none" stroke-width="1" fill="none" fill-rule="evenodd">
        <g id="Action-icons/Add-new/Outlined/36px/Blue_base" transform="translate(-6.000000, -6.000000)">
            <g id="notifications">
                <rect id="bg" fill="#4da1ff" opacity="0" x="0" y="0" width="36" height="36"></rect>
                <g id="_/Color/Gray" transform="translate(6.000000, 6.000000)">
                    <g>
                        <mask id="mask-2" fill="white">
                            <use xlink:href="#path-1"></use>
                        </mask>
                        <use id="Mask" fill="#4da1ff" fill-rule="nonzero" xlink:href="#path-1"></use>
                        <g id="_/Color/Blue" mask="url(#mask-2)" fill="#4da1ff">
                            <g transform="translate(-6.000000, -6.000000)" id="Rectangle-5">
                                <rect x="0" y="0" width="36" height="36"></rect>
                            </g>
                        </g>
                    </g>
                </g>
            </g>
        </g>
    </g>
</svg>