<?xml version="1.0" encoding="UTF-8"?>
<svg width="25px" height="25px" viewBox="0 0 25 25" version="1.1" xmlns="http://www.w3.org/2000/svg" xmlns:xlink="http://www.w3.org/1999/xlink">
    <!-- Generator: Sketch 51.3 (57544) - http://www.bohemiancoding.com/sketch -->
    <title>insta</title>
    <desc>Created with Sketch.</desc>
    <defs>
        <polygon id="path-1" points="0.0677739726 0.321232877 24.7253082 0.321232877 24.7253082 24.9999315 0.0677739726 24.9999315"></polygon>
    </defs>
    <g id="Symbols" stroke="none" stroke-width="1" fill="none" fill-rule="evenodd">
        <g id="footer-small" transform="translate(-1166.000000, -65.000000)">
            <g id="Group-7">
                <g id="insta" transform="translate(1166.000000, 65.000000)">
                    <mask id="mask-2" fill="white">
                        <use xlink:href="#path-1"></use>
                    </mask>
                    <g id="Clip-5"></g>
                    <path d="M8.34928082,19.64 C6.83489726,19.64 5.60681507,18.4122603 5.60681507,16.8978767 L5.60681507,10.6800685 L9.63934932,10.6800685 C9.22633562,11.259863 8.98284247,11.9687671 8.98284247,12.7345205 C8.98284247,14.6941096 10.5711986,16.2824658 12.5304452,16.2824658 C14.4900342,16.2824658 16.0783904,14.6941096 16.0783904,12.7345205 C16.0783904,11.9687671 15.8345548,11.259863 15.4218836,10.6800685 L19.472226,10.6800685 L19.472226,16.8978767 C19.472226,18.4122603 18.2448288,19.64 16.7301027,19.64 L8.34928082,19.64 Z M15.2636644,12.7345205 C15.2636644,14.2417123 14.037637,15.4677397 12.5304452,15.4677397 C11.0235959,15.4677397 9.79756849,14.2417123 9.79756849,12.7345205 C9.79756849,11.9163699 10.1592123,11.1817808 10.7307877,10.6800685 C10.9311301,10.5043836 11.1575,10.3578082 11.4030479,10.2454795 C11.747226,10.0893151 12.1287329,10.0013014 12.5304452,10.0013014 C12.9325,10.0013014 13.3140068,10.0893151 13.6578425,10.2454795 C13.9037329,10.3578082 14.1297603,10.5043836 14.3304452,10.6800685 C14.9020205,11.1817808 15.2636644,11.9163699 15.2636644,12.7345205 Z M15.0581849,10.2454795 C14.4143493,9.59239726 13.5201712,9.18691781 12.5304452,9.18691781 C11.5407192,9.18691781 10.6465411,9.59239726 10.0030479,10.2454795 L5.60681507,10.2454795 L5.60681507,8.44479452 C5.60681507,7.52013699 6.06469178,6.70369863 6.76537671,6.20678082 L6.76537671,9.15952055 L7.32770548,9.15952055 L7.32770548,5.89993151 C7.45510274,5.84856164 7.58729452,5.80678082 7.72359589,5.77527397 L7.72359589,9.15952055 L8.28558219,9.15952055 L8.28558219,5.7040411 C8.30715753,5.70369863 8.32804795,5.70267123 8.34928082,5.70267123 L8.67393836,5.70267123 L8.67393836,9.15952055 L9.23626712,9.15952055 L9.23626712,5.70267123 L16.7301027,5.70267123 C18.2444863,5.70267123 19.472226,6.93041096 19.472226,8.44479452 L19.472226,10.2454795 L15.0581849,10.2454795 Z M0.0677739726,4.32116438 L0.0677739726,20.9999315 C0.0677739726,23.2090705 1.85863497,24.9999315 4.06777397,24.9999315 L12.3598973,24.9999315 L20.7253082,24.9999315 C22.9344472,24.9999315 24.7253082,23.2090705 24.7253082,20.9999315 L24.7253082,4.32116438 C24.7253082,2.11202538 22.9344472,0.321164384 20.7253082,0.321164384 L4.06777397,0.321164384 C1.85863497,0.321164384 0.0677739726,2.11202538 0.0677739726,4.32116438 Z" id="Fill-4" fill="#3E4352" mask="url(#mask-2)"></path>
                    <path d="M12.5,10.7954545 C11.4014959,10.7954545 10.5113636,11.685924 10.5113636,12.7837537 C10.5113636,13.8822579 11.4014959,14.7727273 12.5,14.7727273 C13.5985041,14.7727273 14.4886364,13.8822579 14.4886364,12.7837537 C14.4886364,11.685924 13.5985041,10.7954545 12.5,10.7954545" id="Fill-7" fill="#3E4352" mask="url(#mask-2)"></path>
                    <path d="M17.7584412,6.81818182 L16.3324679,6.81818182 C16.0985398,6.81818182 15.9090909,7.00505701 15.9090909,7.23548224 L15.9090909,8.67360867 C15.9090909,8.9040339 16.0985398,9.09090909 16.3324679,9.09090909 L17.7584412,9.09090909 C17.9923693,9.09090909 18.1818182,8.9040339 18.1818182,8.67360867 L18.1818182,7.23548224 C18.1818182,7.00505701 17.9923693,6.81818182 17.7584412,6.81818182" id="Fill-9" fill="#3E4352" mask="url(#mask-2)"></path>
                </g>
            </g>
        </g>
    </g>
</svg>