<?xml version="1.0" encoding="UTF-8"?>
<svg width="25px" height="25px" viewBox="0 0 25 25" version="1.1" xmlns="http://www.w3.org/2000/svg" xmlns:xlink="http://www.w3.org/1999/xlink">
    <!-- Generator: Sketch 51.3 (57544) - http://www.bohemiancoding.com/sketch -->
    <title>twi</title>
    <desc>Created with Sketch.</desc>
    <defs>
        <polygon id="path-1" points="0.0339383562 0.321232877 24.6914726 0.321232877 24.6914726 25 0.0339383562 25"></polygon>
    </defs>
    <g id="Symbols" stroke="none" stroke-width="1" fill="none" fill-rule="evenodd">
        <g id="footer-small" transform="translate(-1130.000000, -65.000000)">
            <g id="Group-7">
                <g id="twi" transform="translate(1130.000000, 65.000000)">
                    <mask id="mask-2" fill="white">
                        <use xlink:href="#path-1"></use>
                    </mask>
                    <g id="Clip-2"></g>
                    <path d="M10.4575685,19.0530479 C8.84284247,19.0530479 7.33976027,18.5794178 6.07434932,17.7681164 C7.5914726,17.947226 9.10585616,17.5263356 10.307911,16.5838699 C9.0565411,16.5609247 8.00037671,15.7345548 7.63702055,14.5982534 C8.08462329,14.6838699 8.52537671,14.6588699 8.92777397,14.5496233 C7.55277397,14.272911 6.6034589,13.0342123 6.63428082,11.7095548 C7.01989726,11.9235959 7.46099315,12.052363 7.92982877,12.067089 C6.65619863,11.2160616 6.29592466,9.53455479 7.04489726,8.24928082 C8.45482877,9.97941781 10.5620205,11.117774 12.9383904,11.2372945 C12.5216096,9.44825342 13.8784589,7.72599315 15.7240068,7.72599315 C16.5466096,7.72599315 17.2897603,8.07291096 17.8113356,8.62907534 C18.462363,8.50099315 19.0743493,8.26263699 19.6267466,7.93489726 C19.4133904,8.60270548 18.9599658,9.16332192 18.3698973,9.51674658 C18.9479795,9.44791096 19.4990068,9.29414384 20.0120205,9.06674658 C19.6288014,9.64037671 19.1438699,10.1438014 18.5853082,10.5468836 C18.7661301,14.5688014 15.7668151,19.0530479 10.4575685,19.0530479 Z M4.03393836,25.0003082 L20.6914726,25.0003082 C22.9006116,25.0003082 24.6914726,23.2094472 24.6914726,21.0003082 L24.6914726,4.32119863 C24.6914726,2.11205963 22.9006116,0.32119863 20.6914726,0.32119863 L4.03393836,0.32119863 C1.82479936,0.32119863 0.0339383562,2.11205963 0.0339383562,4.32119863 L0.0339383562,21.0003082 C0.0339383562,23.2094472 1.82479936,25.0003082 4.03393836,25.0003082 Z" id="Fill-1" fill="#3E4352" mask="url(#mask-2)"></path>
                </g>
            </g>
        </g>
    </g>
</svg>